<svg width="421" height="722" viewBox="0 0 421 722" fill="none" xmlns="http://www.w3.org/2000/svg">
<g clip-path="url(#clip0_1_2)">
<path d="M243.24 714.112C241.294 714.112 239.716 715.69 239.716 717.636C239.716 719.582 241.294 721.16 243.24 721.16C245.186 721.16 246.764 719.582 246.764 717.636C246.764 715.69 245.186 714.112 243.24 714.112Z" fill="#70C217"/>
<path d="M191.561 714.112C189.615 714.112 188.037 715.69 188.037 717.636C188.037 719.582 189.615 721.16 191.561 721.16C193.507 721.16 195.085 719.582 195.085 717.636C195.085 715.69 193.507 714.112 191.561 714.112Z" fill="#70C217"/>
<path d="M139.882 714.112C137.936 714.112 136.358 715.69 136.358 717.636C136.358 719.582 137.936 721.16 139.882 721.16C141.828 721.16 143.406 719.582 143.406 717.636C143.406 715.69 141.828 714.112 139.882 714.112Z" fill="#70C217"/>
<path d="M88.2025 714.112C86.2565 714.112 84.6789 715.69 84.6789 717.636C84.6789 719.582 86.2565 721.16 88.2025 721.16C90.1485 721.16 91.7261 719.582 91.7261 717.636C91.7261 715.69 90.1485 714.112 88.2025 714.112Z" fill="#70C217"/>
<path d="M36.5233 714.112C34.5773 714.112 32.9997 715.69 32.9997 717.636C32.9997 719.582 34.5773 721.16 36.5233 721.16C38.4693 721.16 40.0469 719.582 40.0469 717.636C40.0469 715.69 38.4693 714.112 36.5233 714.112Z" fill="#70C217"/>
<path d="M243.24 662.433C241.294 662.433 239.716 664.011 239.716 665.957C239.716 667.903 241.294 669.481 243.24 669.481C245.186 669.481 246.764 667.903 246.764 665.957C246.764 664.011 245.186 662.433 243.24 662.433Z" fill="#70C217"/>
<path d="M191.561 662.433C189.615 662.433 188.037 664.011 188.037 665.957C188.037 667.903 189.615 669.481 191.561 669.481C193.507 669.481 195.085 667.903 195.085 665.957C195.085 664.011 193.507 662.433 191.561 662.433Z" fill="#70C217"/>
<path d="M139.882 662.433C137.936 662.433 136.358 664.011 136.358 665.957C136.358 667.903 137.936 669.481 139.882 669.481C141.828 669.481 143.406 667.903 143.406 665.957C143.406 664.011 141.828 662.433 139.882 662.433Z" fill="#70C217"/>
<path d="M88.2025 662.433C86.2565 662.433 84.6789 664.011 84.6789 665.957C84.6789 667.903 86.2565 669.481 88.2025 669.481C90.1485 669.481 91.7261 667.903 91.7261 665.957C91.7261 664.011 90.1485 662.433 88.2025 662.433Z" fill="#70C217"/>
<path d="M36.5233 662.433C34.5773 662.433 32.9997 664.011 32.9997 665.957C32.9997 667.903 34.5773 669.481 36.5233 669.481C38.4693 669.481 40.0469 667.903 40.0469 665.957C40.0469 664.011 38.4693 662.433 36.5233 662.433Z" fill="#70C217"/>
<path d="M243.24 610.754C241.294 610.754 239.716 612.332 239.716 614.278C239.716 616.224 241.294 617.802 243.24 617.802C245.186 617.802 246.764 616.224 246.764 614.278C246.764 612.332 245.186 610.754 243.24 610.754Z" fill="#70C217"/>
<path d="M191.561 610.754C189.615 610.754 188.037 612.332 188.037 614.278C188.037 616.224 189.615 617.802 191.561 617.802C193.507 617.802 195.085 616.224 195.085 614.278C195.085 612.332 193.507 610.754 191.561 610.754Z" fill="#70C217"/>
<path d="M139.882 610.754C137.936 610.754 136.358 612.332 136.358 614.278C136.358 616.224 137.936 617.802 139.882 617.802C141.828 617.802 143.406 616.224 143.406 614.278C143.406 612.332 141.828 610.754 139.882 610.754Z" fill="#70C217"/>
<path d="M88.2025 610.754C86.2565 610.754 84.6789 612.332 84.6789 614.278C84.6789 616.224 86.2565 617.802 88.2025 617.802C90.1485 617.802 91.7261 616.224 91.7261 614.278C91.7261 612.332 90.1485 610.754 88.2025 610.754Z" fill="#70C217"/>
<path d="M36.5233 610.754C34.5773 610.754 32.9997 612.332 32.9997 614.278C32.9997 616.224 34.5773 617.802 36.5233 617.802C38.4693 617.802 40.0469 616.224 40.0469 614.278C40.0469 612.332 38.4693 610.754 36.5233 610.754Z" fill="#70C217"/>
<path d="M243.24 559.075C241.294 559.075 239.716 560.653 239.716 562.599C239.716 564.545 241.294 566.123 243.24 566.123C245.186 566.123 246.764 564.545 246.764 562.599C246.764 560.653 245.186 559.075 243.24 559.075Z" fill="#70C217"/>
<path d="M191.561 559.075C189.615 559.075 188.037 560.653 188.037 562.599C188.037 564.545 189.615 566.123 191.561 566.123C193.507 566.123 195.085 564.545 195.085 562.599C195.085 560.653 193.507 559.075 191.561 559.075Z" fill="#70C217"/>
<path d="M139.882 559.075C137.936 559.075 136.358 560.653 136.358 562.599C136.358 564.545 137.936 566.123 139.882 566.123C141.828 566.123 143.406 564.545 143.406 562.599C143.406 560.653 141.828 559.075 139.882 559.075Z" fill="#70C217"/>
<path d="M88.2025 559.075C86.2565 559.075 84.6789 560.653 84.6789 562.599C84.6789 564.545 86.2565 566.123 88.2025 566.123C90.1485 566.123 91.7261 564.545 91.7261 562.599C91.7261 560.653 90.1485 559.075 88.2025 559.075Z" fill="#70C217"/>
<path d="M36.5233 559.075C34.5773 559.075 32.9997 560.653 32.9997 562.599C32.9997 564.545 34.5773 566.123 36.5233 566.123C38.4693 566.123 40.0469 564.545 40.0469 562.599C40.0469 560.653 38.4693 559.075 36.5233 559.075Z" fill="#70C217"/>
<path d="M243.24 507.396C241.294 507.396 239.716 508.974 239.716 510.92C239.716 512.866 241.294 514.444 243.24 514.444C245.186 514.444 246.764 512.866 246.764 510.92C246.764 508.974 245.186 507.396 243.24 507.396Z" fill="#70C217"/>
<path d="M191.561 507.396C189.615 507.396 188.037 508.974 188.037 510.92C188.037 512.866 189.615 514.444 191.561 514.444C193.507 514.444 195.085 512.866 195.085 510.92C195.085 508.974 193.507 507.396 191.561 507.396Z" fill="#70C217"/>
<path d="M139.882 507.396C137.936 507.396 136.358 508.974 136.358 510.92C136.358 512.866 137.936 514.444 139.882 514.444C141.828 514.444 143.406 512.866 143.406 510.92C143.406 508.974 141.828 507.396 139.882 507.396Z" fill="#70C217"/>
<path d="M88.2025 507.396C86.2565 507.396 84.6789 508.974 84.6789 510.92C84.6789 512.866 86.2565 514.444 88.2025 514.444C90.1485 514.444 91.7261 512.866 91.7261 510.92C91.7261 508.974 90.1485 507.396 88.2025 507.396Z" fill="#70C217"/>
<path d="M36.5233 507.396C34.5773 507.396 32.9997 508.974 32.9997 510.92C32.9997 512.866 34.5773 514.444 36.5233 514.444C38.4693 514.444 40.0469 512.866 40.0469 510.92C40.0469 508.974 38.4693 507.396 36.5233 507.396Z" fill="#70C217"/>
<path d="M243.24 455.716C241.294 455.716 239.716 457.294 239.716 459.24C239.716 461.186 241.294 462.764 243.24 462.764C245.186 462.764 246.764 461.186 246.764 459.24C246.764 457.294 245.186 455.716 243.24 455.716Z" fill="#70C217"/>
<path d="M191.561 455.716C189.615 455.716 188.037 457.294 188.037 459.24C188.037 461.186 189.615 462.764 191.561 462.764C193.507 462.764 195.085 461.186 195.085 459.24C195.085 457.294 193.507 455.716 191.561 455.716Z" fill="#70C217"/>
<path d="M139.882 455.716C137.936 455.716 136.358 457.294 136.358 459.24C136.358 461.186 137.936 462.764 139.882 462.764C141.828 462.764 143.406 461.186 143.406 459.24C143.406 457.294 141.828 455.716 139.882 455.716Z" fill="#70C217"/>
<path d="M88.2025 455.716C86.2565 455.716 84.6789 457.294 84.6789 459.24C84.6789 461.186 86.2565 462.764 88.2025 462.764C90.1485 462.764 91.7261 461.186 91.7261 459.24C91.7261 457.294 90.1485 455.716 88.2025 455.716Z" fill="#70C217"/>
<path d="M36.5233 455.716C34.5773 455.716 32.9997 457.294 32.9997 459.24C32.9997 461.186 34.5773 462.764 36.5233 462.764C38.4693 462.764 40.0469 461.186 40.0469 459.24C40.0469 457.294 38.4693 455.716 36.5233 455.716Z" fill="#70C217"/>
<path d="M243.24 404.037C241.294 404.037 239.716 405.615 239.716 407.561C239.716 409.507 241.294 411.085 243.24 411.085C245.186 411.085 246.764 409.507 246.764 407.561C246.764 405.615 245.186 404.037 243.24 404.037Z" fill="#70C217"/>
<path d="M191.561 404.037C189.615 404.037 188.037 405.615 188.037 407.561C188.037 409.507 189.615 411.085 191.561 411.085C193.507 411.085 195.085 409.507 195.085 407.561C195.085 405.615 193.507 404.037 191.561 404.037Z" fill="#70C217"/>
<path d="M139.882 404.037C137.936 404.037 136.358 405.615 136.358 407.561C136.358 409.507 137.936 411.085 139.882 411.085C141.828 411.085 143.406 409.507 143.406 407.561C143.406 405.615 141.828 404.037 139.882 404.037Z" fill="#70C217"/>
<path d="M88.2025 404.037C86.2565 404.037 84.6789 405.615 84.6789 407.561C84.6789 409.507 86.2565 411.085 88.2025 411.085C90.1485 411.085 91.7261 409.507 91.7261 407.561C91.7261 405.615 90.1485 404.037 88.2025 404.037Z" fill="#70C217"/>
<path d="M36.5233 404.037C34.5773 404.037 32.9997 405.615 32.9997 407.561C32.9997 409.507 34.5773 411.085 36.5233 411.085C38.4693 411.085 40.0469 409.507 40.0469 407.561C40.0469 405.615 38.4693 404.037 36.5233 404.037Z" fill="#70C217"/>
<path d="M243.24 352.358C241.294 352.358 239.716 353.936 239.716 355.882C239.716 357.828 241.294 359.406 243.24 359.406C245.186 359.406 246.764 357.828 246.764 355.882C246.764 353.936 245.186 352.358 243.24 352.358Z" fill="#70C217"/>
<path d="M191.561 352.358C189.615 352.358 188.037 353.936 188.037 355.882C188.037 357.828 189.615 359.406 191.561 359.406C193.507 359.406 195.085 357.828 195.085 355.882C195.085 353.936 193.507 352.358 191.561 352.358Z" fill="#70C217"/>
<path d="M139.882 352.358C137.936 352.358 136.358 353.936 136.358 355.882C136.358 357.828 137.936 359.406 139.882 359.406C141.828 359.406 143.406 357.828 143.406 355.882C143.406 353.936 141.828 352.358 139.882 352.358Z" fill="#70C217"/>
<path d="M88.2025 352.358C86.2565 352.358 84.6789 353.936 84.6789 355.882C84.6789 357.828 86.2565 359.406 88.2025 359.406C90.1485 359.406 91.7261 357.828 91.7261 355.882C91.7261 353.936 90.1485 352.358 88.2025 352.358Z" fill="#70C217"/>
<path d="M36.5233 352.358C34.5773 352.358 32.9997 353.936 32.9997 355.882C32.9997 357.828 34.5773 359.406 36.5233 359.406C38.4693 359.406 40.0469 357.828 40.0469 355.882C40.0469 353.936 38.4693 352.358 36.5233 352.358Z" fill="#70C217"/>
<path d="M243.24 300.679C241.294 300.679 239.716 302.257 239.716 304.203C239.716 306.149 241.294 307.727 243.24 307.727C245.186 307.727 246.764 306.149 246.764 304.203C246.764 302.257 245.186 300.679 243.24 300.679Z" fill="#70C217"/>
<path d="M191.561 300.679C189.615 300.679 188.037 302.257 188.037 304.203C188.037 306.149 189.615 307.727 191.561 307.727C193.507 307.727 195.085 306.149 195.085 304.203C195.085 302.257 193.507 300.679 191.561 300.679Z" fill="#70C217"/>
<path d="M139.882 300.679C137.936 300.679 136.358 302.257 136.358 304.203C136.358 306.149 137.936 307.727 139.882 307.727C141.828 307.727 143.406 306.149 143.406 304.203C143.406 302.257 141.828 300.679 139.882 300.679Z" fill="#70C217"/>
<path d="M88.2025 300.679C86.2565 300.679 84.6789 302.257 84.6789 304.203C84.6789 306.149 86.2565 307.727 88.2025 307.727C90.1485 307.727 91.7261 306.149 91.7261 304.203C91.7261 302.257 90.1485 300.679 88.2025 300.679Z" fill="#70C217"/>
<path d="M36.5233 300.679C34.5773 300.679 32.9997 302.257 32.9997 304.203C32.9997 306.149 34.5773 307.727 36.5233 307.727C38.4693 307.727 40.0469 306.149 40.0469 304.203C40.0469 302.257 38.4693 300.679 36.5233 300.679Z" fill="#70C217"/>
<path d="M243.24 249C241.294 249 239.716 250.578 239.716 252.524C239.716 254.47 241.294 256.048 243.24 256.048C245.186 256.048 246.764 254.47 246.764 252.524C246.764 250.578 245.186 249 243.24 249Z" fill="#70C217"/>
<path d="M191.561 249C189.615 249 188.037 250.578 188.037 252.524C188.037 254.47 189.615 256.048 191.561 256.048C193.507 256.048 195.085 254.47 195.085 252.524C195.085 250.578 193.507 249 191.561 249Z" fill="#70C217"/>
<path d="M139.882 249C137.936 249 136.358 250.578 136.358 252.524C136.358 254.47 137.936 256.048 139.882 256.048C141.828 256.048 143.406 254.47 143.406 252.524C143.406 250.578 141.828 249 139.882 249Z" fill="#70C217"/>
<path d="M88.2025 249C86.2565 249 84.6789 250.578 84.6789 252.524C84.6789 254.47 86.2565 256.048 88.2025 256.048C90.1485 256.048 91.7261 254.47 91.7261 252.524C91.7261 250.578 90.1485 249 88.2025 249Z" fill="#70C217"/>
<path d="M36.5233 249C34.5773 249 32.9997 250.578 32.9997 252.524C32.9997 254.47 34.5773 256.048 36.5233 256.048C38.4693 256.048 40.0469 254.47 40.0469 252.524C40.0469 250.578 38.4693 249 36.5233 249Z" fill="#70C217"/>
<path d="M220.5 443.5C329.852 443.5 418.5 354.852 418.5 245.5C418.5 136.148 329.852 47.5 220.5 47.5C111.148 47.5 22.5 136.148 22.5 245.5C22.5 354.852 111.148 443.5 220.5 443.5Z" stroke="#FFBA49" stroke-width="5"/>
<path d="M32.5 62.5C49.0685 62.5 62.5 49.0685 62.5 32.5C62.5 15.9315 49.0685 2.5 32.5 2.5C15.9315 2.5 2.5 15.9315 2.5 32.5C2.5 49.0685 15.9315 62.5 32.5 62.5Z" stroke="#FFBA49" stroke-width="5"/>
</g>
<defs>
<clipPath id="clip0_1_2">
<rect width="421" height="722" fill="white"/>
</clipPath>
</defs>
</svg>
